<svg version="1.0" xmlns="http://www.w3.org/2000/svg" width="120.000000pt" height="120.000000pt" viewBox="0 0 120.000000 120.000000" preserveAspectRatio="xMidYMid meet" style="width: 100px; height: auto;">
<g transform="translate(0.000000,120.000000) scale(0.100000,-0.100000)" fill="#c4c4c4" stroke="none">
<path d="M548 1150 c-72 -12 -137 -40 -193 -81 -140 -103 -210 -237 -209 -399 0 -94 18 -161 67 -252 30 -56 31 -57 14 -95 -23 -53 -37 -119 -36 -178 1 -47 2 -45 15 30 26 145 112 288 245 407 38 34 66 64 64 67 -3 2 8 10 25 17 20 9 30 20 30 34 0 12 8 34 18 48 33 48 37 58 14 38 -12 -10 -31 -39 -43 -63 -15 -30 -26 -42 -36 -39 -8 3 -21 6 -29 6 -28 0 -12 26 46 75 33 28 60 53 60 58 0 4 11 7 25 7 13 0 40 11 60 24 35 24 162 72 170 64 11 -11 -64 -180 -85 -193 -6 -4 -8 -15 -5 -25 4 -14 -7 -33 -39 -67 -24 -26 -53 -59 -64 -72 -17 -23 -50 -22 -36 0 3 5 0 16 -6 24 -10 12 -8 16 11 24 33 12 112 71 106 78 -3 3 -27 -10 -52 -28 -33 -24 -48 -30 -54 -21 -5 8 -13 0 -24 -23 -9 -19 -21 -35 -26 -35 -14 0 -57 -89 -81 -169 -39 -129 -17 -253 57 -323 41 -39 111 -68 163 -67 l45 1 -42 8 c-54 11 -92 31 -124 67 -28 30 -59 74 -59 83 0 3 33 4 74 2 200 -10 374 94 464 277 37 75 37 77 37 201 0 100 -4 135 -19 175 -88 226 -312 354 -548 315z m223 -31 c21 -7 36 -16 32 -22 -3 -6 -1 -7 5 -3 13 8 83 -24 76 -35 -2 -4 1 -11 7 -15 8 -4 9 -3 5 4 -12 21 8 12 40 -16 50 -44 111 -133 132 -192 43 -119 45 -141 28 -239 -8 -50 -21 -101 -28 -114 -7 -12 -13 -24 -13 -27 -4 -18 -30 -60 -37 -60 -4 0 -8 -6 -8 -12 -1 -21 -59 -80 -72 -72 -6 4 -8 3 -4 -4 6 -10 -105 -84 -122 -80 -4 1 -20 -4 -37 -11 -23 -10 -34 -10 -52 0 -13 7 -26 9 -30 6 -3 -4 2 -7 13 -8 11 0 2 -7 -20 -15 -29 -10 -53 -12 -86 -6 -56 10 -70 6 -71 -21 0 -15 -5 -10 -16 18 -15 42 -13 195 4 218 5 7 15 29 22 51 7 21 23 53 36 72 l23 34 16 -25 c11 -17 22 -22 34 -18 24 9 52 39 44 49 -4 4 1 4 10 1 12 -4 15 -2 11 9 -3 7 -1 14 5 14 16 0 82 92 82 115 0 13 6 28 14 34 8 7 25 45 37 84 12 40 24 75 26 80 8 14 -48 28 -63 16 -8 -6 -14 -9 -14 -6 0 9 -121 -43 -141 -60 -8 -7 -24 -13 -35 -13 -11 0 -26 -6 -32 -12 -10 -10 -15 -10 -23 2 -9 13 -10 13 -8 0 3 -30 -1 -40 -17 -40 -8 0 -13 -4 -10 -9 6 -9 -22 -26 -37 -22 -5 1 -6 -3 -3 -8 3 -5 -1 -14 -9 -21 -19 -16 -19 -35 0 -64 15 -22 12 -25 -62 -97 -43 -41 -95 -101 -117 -132 -21 -31 -42 -57 -47 -57 -5 0 -15 12 -22 28 -6 15 -16 30 -21 33 -5 4 -6 14 -3 24 4 9 3 14 -2 11 -20 -13 -46 89 -44 179 1 91 30 204 48 187 4 -4 5 1 2 10 -6 16 33 85 55 99 5 3 10 10 11 15 1 5 5 8 9 7 5 -2 7 0 5 5 -1 4 1 8 5 10 4 2 22 17 39 33 36 34 100 69 124 69 8 0 15 4 15 9 0 28 207 35 291 10z m16 -421 c-3 -8 -6 -5 -6 6 -1 11 2 17 5 13 3 -3 4 -12 1 -19z"/>
<path d="M478 1043 c-15 -18 -35 -63 -22 -50 4 4 12 -3 18 -15 20 -39 42 -45 71 -18 27 25 33 68 13 88 -18 18 -63 15 -80 -5z m65 -7 c26 -20 7 -66 -28 -66 -29 0 -45 41 -25 65 15 18 30 19 53 1z"/>
<path d="M995 910 c3 -5 8 -10 11 -10 2 0 4 5 4 10 0 6 -5 10 -11 10 -5 0 -7 -4 -4 -10z"/>
<path d="M956 857 c3 -10 9 -15 12 -12 3 3 0 11 -7 18 -10 9 -11 8 -5 -6z"/>
<path d="M221 824 c0 -11 3 -14 6 -6 3 7 2 16 -1 19 -3 4 -6 -2 -5 -13z"/>
<path d="M940 831 c0 -5 5 -13 10 -16 6 -3 10 -2 10 4 0 5 -4 13 -10 16 -5 3 -10 2 -10 -4z"/>
<path d="M251 754 c-1 -12 -12 -29 -26 -38 -22 -14 -23 -19 -13 -36 7 -11 18 -20 25 -20 6 0 14 -6 16 -12 3 -7 6 -3 6 10 1 16 -5 22 -19 22 -12 0 -20 7 -20 16 0 10 6 14 15 10 16 -6 31 33 22 56 -3 7 -6 3 -6 -8z"/>
<path d="M281 739 c-1 -17 5 -29 17 -34 16 -6 16 -7 0 -19 -10 -7 -18 -21 -18 -32 0 -17 1 -17 15 2 15 19 15 19 9 -1 -4 -14 -3 -16 4 -7 7 11 9 44 3 85 0 5 -5 6 -10 2 -5 -3 -12 3 -14 12 -3 12 -5 9 -6 -8z"/>
<path d="M922 647 c-27 -29 -27 -38 -1 -60 19 -17 23 -17 45 -2 29 19 30 39 4 65 -25 25 -22 25 -48 -3z m45 -23 c7 -18 -14 -35 -34 -27 -7 3 -13 14 -13 24 0 24 38 26 47 3z"/>
<path d="M415 610 c3 -5 8 -10 11 -10 2 0 4 5 4 10 0 6 -5 10 -11 10 -5 0 -7 -4 -4 -10z"/>
<path d="M201 524 c0 -11 3 -14 6 -6 3 7 2 16 -1 19 -3 4 -6 -2 -5 -13z"/>
<path d="M788 433 c-29 -7 -30 -73 -2 -73 17 0 18 16 2 24 -10 5 -10 7 0 12 6 3 12 13 12 22 0 13 3 12 19 -4 13 -13 15 -23 9 -31 -6 -7 -8 -18 -6 -25 3 -8 9 -5 17 10 19 36 -10 74 -51 65z"/>
<path d="M250 410 c0 -5 5 -10 11 -10 5 0 7 5 4 10 -3 6 -8 10 -11 10 -2 0 -4 -4 -4 -10z"/>
</g>
</svg>